<?xml version="1.0" encoding="UTF-8"?>
<svg width="980px" height="809px" viewBox="0 0 980 809" version="1.1" xmlns="http://www.w3.org/2000/svg" xmlns:xlink="http://www.w3.org/1999/xlink">
    <!-- Generator: Sketch 59.1 (86144) - https://sketch.com -->
    <title>Intuit Open Source White</title>
    <desc>Created with Sketch.</desc>
    <defs>
        <circle id="path-1" cx="80" cy="80" r="80"></circle>
        <circle id="path-3" cx="80" cy="80" r="80"></circle>
        <circle id="path-5" cx="80" cy="80" r="80"></circle>
        <circle id="path-7" cx="80" cy="80" r="80"></circle>
        <circle id="path-9" cx="80" cy="80" r="80"></circle>
        <circle id="path-11" cx="80" cy="80" r="80"></circle>
        <circle id="path-13" cx="80" cy="80" r="80"></circle>
        <circle id="path-15" cx="80" cy="80" r="80"></circle>
        <circle id="path-17" cx="80" cy="80" r="80"></circle>
        <circle id="path-19" cx="80" cy="80" r="80"></circle>
        <circle id="path-21" cx="80" cy="80" r="80"></circle>
        <circle id="path-23" cx="80" cy="80" r="80"></circle>
        <circle id="path-25" cx="80" cy="80" r="80"></circle>
        <circle id="path-27" cx="80" cy="80" r="80"></circle>
        <circle id="path-29" cx="80" cy="80" r="80"></circle>
        <circle id="path-31" cx="80" cy="80" r="80"></circle>
        <circle id="path-33" cx="80" cy="80" r="80"></circle>
        <circle id="path-35" cx="80" cy="80" r="80"></circle>
        <circle id="path-37" cx="80" cy="80" r="80"></circle>
        <circle id="path-39" cx="80" cy="80" r="80"></circle>
        <circle id="path-41" cx="80" cy="80" r="80"></circle>
        <circle id="path-43" cx="80" cy="80" r="80"></circle>
        <circle id="path-45" cx="80" cy="80" r="80"></circle>
        <circle id="path-47" cx="80" cy="80" r="80"></circle>
        <circle id="path-49" cx="80" cy="80" r="80"></circle>
        <circle id="path-51" cx="80" cy="80" r="80"></circle>
        <circle id="path-53" cx="80" cy="80" r="80"></circle>
        <circle id="path-55" cx="80" cy="80" r="80"></circle>
        <circle id="path-57" cx="80" cy="80" r="80"></circle>
        <circle id="path-59" cx="80" cy="80" r="80"></circle>
        <circle id="path-61" cx="80" cy="80" r="80"></circle>
        <circle id="path-63" cx="80" cy="80" r="80"></circle>
    </defs>
    <g id="Intuit-Open-Source-White" stroke="none" stroke-width="1" fill="none" fill-rule="evenodd">
        <g id="3" transform="translate(576.000000, 70.000000)">
            <g id="4-copy" transform="translate(84.000000, 84.000000) scale(-1, -1) translate(-84.000000, -84.000000) translate(4.000000, 4.000000)">
                <mask id="mask-2" fill="white">
                    <use xlink:href="#path-1"></use>
                </mask>
                <g id="Mask"></g>
                <rect id="Rectangle" fill="#FFFFFF" mask="url(#mask-2)" x="-15" y="-44" width="95" height="124"></rect>
            </g>
            <g id="3-copy" transform="translate(80.000000, 84.000000) scale(1, -1) translate(-80.000000, -84.000000) translate(0.000000, 4.000000)">
                <mask id="mask-4" fill="white">
                    <use xlink:href="#path-3"></use>
                </mask>
                <g id="Mask"></g>
                <rect id="Rectangle" fill="#FFFFFF" mask="url(#mask-4)" x="-15" y="-44" width="95" height="124"></rect>
            </g>
            <g id="2-copy" transform="translate(84.000000, 80.000000) scale(-1, 1) translate(-84.000000, -80.000000) translate(4.000000, 0.000000)">
                <mask id="mask-6" fill="white">
                    <use xlink:href="#path-5"></use>
                </mask>
                <g id="Mask"></g>
                <rect id="Rectangle" fill="#FFFFFF" mask="url(#mask-6)" x="-15" y="-44" width="95" height="124"></rect>
            </g>
            <g id="1-copy">
                <mask id="mask-8" fill="white">
                    <use xlink:href="#path-7"></use>
                </mask>
                <g id="Mask"></g>
                <rect id="Rectangle" fill="#FFFFFF" mask="url(#mask-8)" x="-15" y="-44" width="95" height="124"></rect>
            </g>
        </g>
        <g id="3-copy-3" transform="translate(576.000000, 406.000000)">
            <g id="4-copy" transform="translate(84.000000, 84.000000) scale(-1, -1) translate(-84.000000, -84.000000) translate(4.000000, 4.000000)">
                <mask id="mask-10" fill="white">
                    <use xlink:href="#path-9"></use>
                </mask>
                <g id="Mask"></g>
                <rect id="Rectangle" fill="#FFFFFF" mask="url(#mask-10)" x="-15" y="-44" width="95" height="124"></rect>
            </g>
            <g id="3-copy" transform="translate(80.000000, 84.000000) scale(1, -1) translate(-80.000000, -84.000000) translate(0.000000, 4.000000)">
                <mask id="mask-12" fill="white">
                    <use xlink:href="#path-11"></use>
                </mask>
                <g id="Mask"></g>
                <rect id="Rectangle" fill="#FFFFFF" mask="url(#mask-12)" x="-15" y="-44" width="95" height="124"></rect>
            </g>
            <g id="2-copy" transform="translate(84.000000, 80.000000) scale(-1, 1) translate(-84.000000, -80.000000) translate(4.000000, 0.000000)">
                <mask id="mask-14" fill="white">
                    <use xlink:href="#path-13"></use>
                </mask>
                <g id="Mask"></g>
                <rect id="Rectangle" fill="#FFFFFF" mask="url(#mask-14)" x="-15" y="-44" width="95" height="124"></rect>
            </g>
            <g id="1-copy">
                <mask id="mask-16" fill="white">
                    <use xlink:href="#path-15"></use>
                </mask>
                <g id="Mask"></g>
                <rect id="Rectangle" fill="#FFFFFF" mask="url(#mask-16)" x="-15" y="-44" width="95" height="124"></rect>
            </g>
        </g>
        <g id="3-copy-2" transform="translate(576.000000, 238.000000)">
            <g id="4-copy" transform="translate(84.000000, 84.000000) scale(-1, -1) translate(-84.000000, -84.000000) translate(4.000000, 4.000000)">
                <mask id="mask-18" fill="white">
                    <use xlink:href="#path-17"></use>
                </mask>
                <g id="Mask"></g>
                <rect id="Rectangle" fill="#FFFFFF" mask="url(#mask-18)" x="-15" y="-44" width="95" height="124"></rect>
            </g>
            <g id="3-copy" transform="translate(80.000000, 84.000000) scale(1, -1) translate(-80.000000, -84.000000) translate(0.000000, 4.000000)">
                <mask id="mask-20" fill="white">
                    <use xlink:href="#path-19"></use>
                </mask>
                <g id="Mask"></g>
                <rect id="Rectangle" fill="#FFFFFF" mask="url(#mask-20)" x="-15" y="-44" width="95" height="124"></rect>
            </g>
            <g id="2-copy" transform="translate(84.000000, 80.000000) scale(-1, 1) translate(-84.000000, -80.000000) translate(4.000000, 0.000000)">
                <mask id="mask-22" fill="white">
                    <use xlink:href="#path-21"></use>
                </mask>
                <g id="Mask"></g>
                <rect id="Rectangle" fill="#FFFFFF" mask="url(#mask-22)" x="-15" y="-44" width="95" height="124"></rect>
            </g>
            <g id="1-copy">
                <mask id="mask-24" fill="white">
                    <use xlink:href="#path-23"></use>
                </mask>
                <g id="Mask"></g>
                <rect id="Rectangle" fill="#FFFFFF" mask="url(#mask-24)" x="-15" y="-44" width="95" height="124"></rect>
            </g>
        </g>
        <g id="2" transform="translate(408.000000, 70.000000)">
            <g id="4-copy" transform="translate(84.000000, 84.000000) scale(-1, -1) translate(-84.000000, -84.000000) translate(4.000000, 4.000000)">
                <mask id="mask-26" fill="white">
                    <use xlink:href="#path-25"></use>
                </mask>
                <g id="Mask"></g>
                <rect id="Rectangle" fill="#FFFFFF" mask="url(#mask-26)" x="-15" y="-44" width="95" height="124"></rect>
            </g>
            <g id="3-copy" transform="translate(80.000000, 84.000000) scale(1, -1) translate(-80.000000, -84.000000) translate(0.000000, 4.000000)">
                <mask id="mask-28" fill="white">
                    <use xlink:href="#path-27"></use>
                </mask>
                <g id="Mask"></g>
                <rect id="Rectangle" fill="#FFFFFF" mask="url(#mask-28)" x="-15" y="-44" width="95" height="124"></rect>
            </g>
            <g id="2-copy" transform="translate(84.000000, 80.000000) scale(-1, 1) translate(-84.000000, -80.000000) translate(4.000000, 0.000000)">
                <mask id="mask-30" fill="white">
                    <use xlink:href="#path-29"></use>
                </mask>
                <g id="Mask"></g>
                <rect id="Rectangle" fill="#FFFFFF" mask="url(#mask-30)" x="-15" y="-44" width="95" height="124"></rect>
            </g>
            <g id="1-copy">
                <mask id="mask-32" fill="white">
                    <use xlink:href="#path-31"></use>
                </mask>
                <g id="Mask"></g>
                <rect id="Rectangle" fill="#FFFFFF" mask="url(#mask-32)" x="-15" y="-44" width="95" height="124"></rect>
            </g>
        </g>
        <g id="2-copy-2" transform="translate(408.000000, 406.000000)">
            <g id="4-copy" transform="translate(84.000000, 84.000000) scale(-1, -1) translate(-84.000000, -84.000000) translate(4.000000, 4.000000)">
                <mask id="mask-34" fill="white">
                    <use xlink:href="#path-33"></use>
                </mask>
                <g id="Mask"></g>
                <rect id="Rectangle" fill="#FFFFFF" mask="url(#mask-34)" x="-15" y="-44" width="95" height="124"></rect>
            </g>
            <g id="3-copy" transform="translate(80.000000, 84.000000) scale(1, -1) translate(-80.000000, -84.000000) translate(0.000000, 4.000000)">
                <mask id="mask-36" fill="white">
                    <use xlink:href="#path-35"></use>
                </mask>
                <g id="Mask"></g>
                <rect id="Rectangle" fill="#FFFFFF" mask="url(#mask-36)" x="-15" y="-44" width="95" height="124"></rect>
            </g>
            <g id="2-copy" transform="translate(84.000000, 80.000000) scale(-1, 1) translate(-84.000000, -80.000000) translate(4.000000, 0.000000)">
                <mask id="mask-38" fill="white">
                    <use xlink:href="#path-37"></use>
                </mask>
                <g id="Mask"></g>
                <rect id="Rectangle" fill="#FFFFFF" mask="url(#mask-38)" x="-15" y="-44" width="95" height="124"></rect>
            </g>
            <g id="1-copy">
                <mask id="mask-40" fill="white">
                    <use xlink:href="#path-39"></use>
                </mask>
                <g id="Mask"></g>
                <rect id="Rectangle" fill="#FFFFFF" mask="url(#mask-40)" x="-15" y="-44" width="95" height="124"></rect>
            </g>
        </g>
        <g id="1" transform="translate(240.000000, 70.000000)">
            <g id="4" transform="translate(84.000000, 84.000000) scale(-1, -1) translate(-84.000000, -84.000000) translate(4.000000, 4.000000)">
                <mask id="mask-42" fill="white">
                    <use xlink:href="#path-41"></use>
                </mask>
                <g id="Mask"></g>
                <rect id="Rectangle" fill="#FFFFFF" mask="url(#mask-42)" x="-15" y="-44" width="95" height="124"></rect>
            </g>
            <g id="3" transform="translate(80.000000, 84.000000) scale(1, -1) translate(-80.000000, -84.000000) translate(0.000000, 4.000000)">
                <mask id="mask-44" fill="white">
                    <use xlink:href="#path-43"></use>
                </mask>
                <g id="Mask"></g>
                <rect id="Rectangle" fill="#FFFFFF" mask="url(#mask-44)" x="-15" y="-44" width="95" height="124"></rect>
            </g>
            <g id="2" transform="translate(84.000000, 80.000000) scale(-1, 1) translate(-84.000000, -80.000000) translate(4.000000, 0.000000)">
                <mask id="mask-46" fill="white">
                    <use xlink:href="#path-45"></use>
                </mask>
                <g id="Mask"></g>
                <rect id="Rectangle" fill="#FFFFFF" mask="url(#mask-46)" x="-15" y="-44" width="95" height="124"></rect>
            </g>
            <g>
                <mask id="mask-48" fill="white">
                    <use xlink:href="#path-47"></use>
                </mask>
                <g id="Mask"></g>
                <rect id="Rectangle" fill="#FFFFFF" mask="url(#mask-48)" x="-15" y="-44" width="95" height="124"></rect>
            </g>
        </g>
        <g id="1-copy-3" transform="translate(240.000000, 406.000000)">
            <g id="4" transform="translate(84.000000, 84.000000) scale(-1, -1) translate(-84.000000, -84.000000) translate(4.000000, 4.000000)">
                <mask id="mask-50" fill="white">
                    <use xlink:href="#path-49"></use>
                </mask>
                <g id="Mask"></g>
                <rect id="Rectangle" fill="#FFFFFF" mask="url(#mask-50)" x="-15" y="-44" width="95" height="124"></rect>
            </g>
            <g id="3" transform="translate(80.000000, 84.000000) scale(1, -1) translate(-80.000000, -84.000000) translate(0.000000, 4.000000)">
                <mask id="mask-52" fill="white">
                    <use xlink:href="#path-51"></use>
                </mask>
                <g id="Mask"></g>
                <rect id="Rectangle" fill="#FFFFFF" mask="url(#mask-52)" x="-15" y="-44" width="95" height="124"></rect>
            </g>
            <g id="2" transform="translate(84.000000, 80.000000) scale(-1, 1) translate(-84.000000, -80.000000) translate(4.000000, 0.000000)">
                <mask id="mask-54" fill="white">
                    <use xlink:href="#path-53"></use>
                </mask>
                <g id="Mask"></g>
                <rect id="Rectangle" fill="#FFFFFF" mask="url(#mask-54)" x="-15" y="-44" width="95" height="124"></rect>
            </g>
            <g id="1">
                <mask id="mask-56" fill="white">
                    <use xlink:href="#path-55"></use>
                </mask>
                <g id="Mask"></g>
                <rect id="Rectangle" fill="#FFFFFF" mask="url(#mask-56)" x="-15" y="-44" width="95" height="124"></rect>
            </g>
        </g>
        <g id="1-copy-2" transform="translate(240.000000, 238.000000)">
            <g id="4" transform="translate(84.000000, 84.000000) scale(-1, -1) translate(-84.000000, -84.000000) translate(4.000000, 4.000000)">
                <mask id="mask-58" fill="white">
                    <use xlink:href="#path-57"></use>
                </mask>
                <g id="Mask"></g>
                <rect id="Rectangle" fill="#FFFFFF" mask="url(#mask-58)" x="-15" y="-44" width="95" height="124"></rect>
            </g>
            <g id="3" transform="translate(80.000000, 84.000000) scale(1, -1) translate(-80.000000, -84.000000) translate(0.000000, 4.000000)">
                <mask id="mask-60" fill="white">
                    <use xlink:href="#path-59"></use>
                </mask>
                <g id="Mask"></g>
                <rect id="Rectangle" fill="#FFFFFF" mask="url(#mask-60)" x="-15" y="-44" width="95" height="124"></rect>
            </g>
            <g id="2" transform="translate(84.000000, 80.000000) scale(-1, 1) translate(-84.000000, -80.000000) translate(4.000000, 0.000000)">
                <mask id="mask-62" fill="white">
                    <use xlink:href="#path-61"></use>
                </mask>
                <g id="Mask"></g>
                <rect id="Rectangle" fill="#FFFFFF" mask="url(#mask-62)" x="-15" y="-44" width="95" height="124"></rect>
            </g>
            <g id="1">
                <mask id="mask-64" fill="white">
                    <use xlink:href="#path-63"></use>
                </mask>
                <g id="Mask"></g>
                <rect id="Rectangle" fill="#FFFFFF" mask="url(#mask-64)" x="-15" y="-44" width="95" height="124"></rect>
            </g>
        </g>
        <text id="INTUIT-OPEN-SOURCE" font-family="AvenirNext-Bold, Avenir Next" font-size="84" font-weight="bold" letter-spacing="0.35" fill="#FFFFFF">
            <tspan x="32" y="751">INTUIT OPEN SOURCE</tspan>
        </text>
    </g>
</svg>